<svg viewBox="-31 0 512 512" xmlns="http://www.w3.org/2000/svg"><path d="m0 301v90c0 16.566406 13.429688 30 30 30s30-13.433594 30-30v-90c0-16.570312-13.429688-30-30-30s-30 13.429688-30 30zm0 0"/><path d="m90 376h60v106c0 16.566406 13.429688 30 30 30s30-13.433594 30-30v-452c0-16.570312-13.429688-30-30-30s-30 13.429688-30 30v286h-60zm0 0"/><path d="m450 211v-90c0-16.570312-13.429688-30-30-30s-30 13.429688-30 30v90c0 16.566406 13.429688 30 30 30s30-13.433594 30-30zm0 0"/><path d="m360 136h-60v-106c0-16.570312-13.429688-30-30-30s-30 13.429688-30 30v452c0 16.566406 13.429688 30 30 30s30-13.433594 30-30v-286h60zm0 0"/></svg>