<?xml version="1.0" encoding="utf-8"?>
<!-- Generator: Adobe Illustrator 21.0.0, SVG Export Plug-In . SVG Version: 6.00 Build 0)  -->
<svg version="1.1" id="Layer_1" xmlns="http://www.w3.org/2000/svg" xmlns:xlink="http://www.w3.org/1999/xlink" x="0px" y="0px"
	 viewBox="0 0 700 700" style="enable-background:new 0 0 700 700;" xml:space="preserve">
<style type="text/css">
	.st0{fill:#3A3A3A;}
</style>
<g>
	<g>
		<g>
			<path class="st0" d="M509.8,332c-0.1-0.3-0.2-0.6-0.2-0.9c-0.2-0.7-0.4-1.5-0.6-2.2c-1.4-5.1-2.9-10.1-4.5-14.9
				c-0.3-1-0.6-1.9-1-2.9c-15.1-44.9-36.8-77.3-56.2-100.6c-0.6-0.8-1.3-1.5-1.9-2.3c-4.9-5.8-9.6-10.9-14-15.6
				c-4.5-4.7-8.7-8.9-12.4-12.6l-0.7-0.7c-3.2-3.2-6.6-6.2-10-8.9c-0.7-0.6-1.5-1.1-2.2-1.7c-31.4-23.1-69.7-23.1-105.2,0.8
				l-2.6,1.5c-39.3,23.6-65.5,39.3-77.3,76.9c-0.3,0.9-0.6,1.8-0.8,2.8c-1.8,6.1-3.1,12.8-4.2,20.2c0,0,0,0.1,0,0.1
				c-0.9,6.3-0.9,12.7-0.3,19.2c0.5,5.1,1.4,10.3,2.7,15.4c0.2,0.9,0.5,1.8,0.7,2.8c7.2,26.5,23,52.7,36.6,75.2
				c9.4,15.5,18.3,30.2,22.5,42c5.5,15.4,5.4,33.2,5.3,52.1c-0.1,19.5-0.2,39.5,6,58c1.1,0.3,2.2,0.7,3.3,1
				c-6.8-18.6-6.7-39.1-6.5-59c0.1-19.1,0.2-37.2-5.5-53c-4.3-12.1-13.3-26.9-22.7-42.5c-19.8-32.8-44.5-73.6-39.4-110.9
				c7.4-53.8,35.1-70.4,80.9-97.9l2.6-1.6l0.1,0c17.4-11.7,35.1-17.7,52.8-17.7c3.2,0,6.5,0.2,9.7,0.6c18.7,2.3,36.5,11.5,51.5,26.5
				c23.9,23.9,68.5,68.5,90.5,150.5c15.3,57.1,11.2,119-8.5,164.4c1.5-1.2,3-2.5,4.5-3.8C521,447.2,524.5,387.4,509.8,332z"/>
			<path class="st0" d="M446.8,211.4l-2.4-1.4c0.2-0.3,17-30.3,5-42.4c-4.4-4.4-10.9-7.2-17.3-7.5c-8.5-0.4-17.2,3.6-25,11.4
				l-1.9-1.9c8.4-8.4,17.7-12.6,27-12.2c10.2,0.4,16.8,5.9,19.1,8.3C464.8,179.2,447.6,210.1,446.8,211.4z"/>
			<path class="st0" d="M220.2,308.5c-24.8,0-33.8-16.6-33.8-27.7c0-12.2,4.6-32.8,35.7-32.8v2.7c-12.3,0-32.9,3.9-32.9,30
				c0,10,8.3,25,31.1,25L220.2,308.5z"/>
			<path class="st0" d="M364.3,162.6c-21.3,0-38.6,17.3-38.6,38.5s17.3,38.6,38.6,38.6c21.2,0,38.5-17.3,38.5-38.6
				S385.5,162.6,364.3,162.6z M364.3,236.9c-19.7,0-35.8-16.1-35.8-35.8c0-19.7,16.1-35.8,35.8-35.8c14.2,0,26.5,8.3,32.3,20.3
				c1.5,3.1,2.6,6.5,3.1,10v0c0.3,1.8,0.4,3.6,0.4,5.4C400.1,220.9,384,236.9,364.3,236.9z"/>
			<path class="st0" d="M274.6,207.2c-21.3,0-38.5,17.3-38.5,38.5s17.3,38.6,38.5,38.6s38.6-17.3,38.6-38.6S295.8,207.2,274.6,207.2
				z M274.6,281.6c-19.7,0-35.8-16.1-35.8-35.8c0-19.7,16.1-35.8,35.8-35.8c13,0,24.4,6.9,30.6,17.3c1.8,3,3.2,6.4,4.1,9.9
				c0.7,2.8,1,5.6,1,8.6C310.4,265.5,294.3,281.6,274.6,281.6z"/>
			<circle class="st0" cx="297.5" cy="236.3" r="11.8"/>
			<circle class="st0" cx="388" cy="193.8" r="11.8"/>
		</g>
		<g>
			<path class="st0" d="M393,193.9c-0.4,0-0.7-0.1-1-0.4c-0.3-0.3-0.4-0.6-0.4-1c0-0.4,0.1-0.7,0.4-1c0.5-0.5,1.4-0.5,1.9,0
				c0.3,0.3,0.4,0.6,0.4,1c0,0.4-0.1,0.7-0.4,1C393.7,193.7,393.3,193.9,393,193.9z"/>
			<path class="st0" d="M302.6,236.2c-0.4,0-0.7-0.1-1-0.4c-0.1-0.1-0.1-0.1-0.2-0.2c0-0.1-0.1-0.1-0.1-0.2c0-0.1-0.1-0.2-0.1-0.3
				c0-0.1,0-0.2,0-0.3c0-0.4,0.1-0.7,0.4-1c0.5-0.5,1.4-0.5,1.9,0c0.1,0.1,0.1,0.1,0.2,0.2c0.1,0.1,0.1,0.2,0.1,0.2
				c0,0.1,0.1,0.2,0.1,0.3c0,0.1,0,0.2,0,0.3c0,0.1,0,0.2,0,0.3c0,0.1,0,0.2-0.1,0.3c0,0.1-0.1,0.2-0.1,0.2c0,0.1-0.1,0.1-0.2,0.2
				c-0.1,0.1-0.1,0.1-0.2,0.2c-0.1,0-0.2,0.1-0.2,0.1c-0.1,0-0.2,0.1-0.3,0.1C302.7,236.2,302.7,236.2,302.6,236.2z"/>
		</g>
		<g>
			
				<ellipse transform="matrix(0.8231 -0.5679 0.5679 0.8231 -86.3867 234.9096)" class="st0" cx="333.9" cy="256.1" rx="15.4" ry="9.7"/>
			<path class="st0" d="M319.7,293.1c-0.6,0-1.3-0.1-1.9-0.2c-1.4-0.4-3.4-1.5-4.4-4.5c-4.7-14,7.2-24.8,15.9-28.3l1,2.5
				c-7.7,3.1-18.4,12.6-14.3,24.8c0.5,1.5,1.3,2.4,2.5,2.7c3.6,1,10.6-2.9,19.4-10.5c3-2.6,6.8-4.1,10.8-4.3
				c7.1-0.4,23.5-2.2,23.5-11.1c0-6.3-5-9.7-8-11.2c-7.3-3.7-16.8-3.2-22.5,1.1L340,252c6.5-4.9,17.2-5.5,25.4-1.4
				c6.1,3,9.5,8,9.5,13.7c0,10.9-16.3,13.3-26.1,13.8c-3.4,0.2-6.6,1.5-9.1,3.7C333.7,287.1,325.5,293.1,319.7,293.1z"/>
			<path class="st0" d="M345.1,310.4c-1.3,0-2.6-0.3-3.8-1c-5.9-3.4-8.9-14.4-10.4-23.1l2.7-0.5c1.9,11.2,5.2,19,9,21.2
				c1.4,0.8,3,0.9,4.6,0.2c4.1-1.5,6.5-3.6,7.1-6.1c0.9-3.5-1.8-7.3-3.5-9c-1.7-1.7-4-6.5-6.9-14.2l2.6-1c2.6,7.1,4.9,11.9,6.2,13.3
				c2.6,2.6,5.3,7.3,4.2,11.7c-0.9,3.5-3.8,6.2-8.8,8C347.2,310.2,346.1,310.4,345.1,310.4z"/>
			<path class="st0" d="M363.3,304.3c-2.3,0-5-0.6-8.1-1.6l0.9-2.6c3.1,1.1,5.9,1.6,8,1.5c2.6-0.2,4.2-1.4,5-3.6
				c1.6-4.4-1.7-12.3-9.3-22.1l2.2-1.7c5.8,7.5,12.2,17.8,9.8,24.7c-1.2,3.2-3.7,5.1-7.4,5.4C364,304.3,363.7,304.3,363.3,304.3z"/>
			<path class="st0" d="M523.1,335.8c-2.2,0-4.9-1-7.9-2c-2.2-0.8-4.8-1.7-7.6-2.5l0.7-2.7c3,0.8,5.6,1.7,7.9,2.5
				c4.7,1.7,7.5,2.6,8.9,1.2c3.9-4,7.4-12.2,2.4-17.2c-2.7-2.7-6.5-2.3-11.6-1.7c-3.9,0.5-8.4,1-13.4,0.1l0.5-2.7
				c4.6,0.8,8.9,0.3,12.7-0.2c5.5-0.6,10.3-1.2,13.9,2.5c4.6,4.6,5,13.7-2.4,21.1C525.8,335.4,524.5,335.8,523.1,335.8z"/>
			<path class="st0" d="M529.2,330.4c-0.3,0-0.6-0.1-0.8-0.3c-0.6-0.5-0.7-1.3-0.3-1.9c0.4-0.6,0.6-1.1,0.4-1.7
				c-0.5-2.1-3.9-4.2-5.1-4.8c-0.7-0.3-1-1.2-0.6-1.8c0.3-0.7,1.2-1,1.8-0.6c0.6,0.3,5.6,2.9,6.5,6.6c0.3,1.4,0,2.8-0.9,4
				C530,330.2,529.6,330.4,529.2,330.4z"/>
			<path class="st0" d="M449,364.2c-8.9-9.6-30.8-7-31.8-6.8l-1.7,0.2l0.5,1.6c0,0.1,3.5,11-3,20.2l0,0c-2.4,3.3-5.8,6.1-10.1,8.2
				c-0.7,0.3-1,1.2-0.6,1.8c0.2,0.5,0.7,0.8,1.2,0.8c0.2,0,0.4,0,0.6-0.1c4.5-2.2,8.1-5.1,10.8-8.5c8-0.3,14.5,2.3,19.8,4.4
				c5.1,2,9.2,3.6,12.5,1.8c0.4-0.2,0.8-0.5,1.1-0.8c0.1,0,0.1-0.1,0.2-0.2c1.7-1.6,3-4.4,3.8-8.6
				C453.3,372.4,452.3,367.7,449,364.2z M449.5,377.6c-0.1,0.8-0.3,1.4-0.5,2.1c-0.7,2.7-1.6,4.5-2.8,5.3c-0.1,0.1-0.3,0.2-0.4,0.3
				c-2.2,1.2-5.7-0.2-10.1-1.9c-5.1-2-11.3-4.5-19-4.6c4.3-7.6,3.2-15.5,2.5-18.8c5.1-0.4,21.2-1.1,27.9,6.1
				C449.6,368.9,450.5,372.7,449.5,377.6z"/>
			<path class="st0" d="M447.4,387.2c-0.1,0-0.3,0-0.4-0.1c-0.7-0.2-1.1-1-0.9-1.7c2.4-8-5.1-11.9-5.4-12c-0.7-0.3-1-1.2-0.6-1.8
				s1.2-1,1.8-0.6c3.4,1.7,9.3,7.1,6.8,15.3C448.6,386.8,448,387.2,447.4,387.2z"/>
			<path class="st0" d="M418.8,181.8c0.1-5.9,4.9-10.5,10.7-10.5c5.9,0,10.8,4.8,10.8,10.8c0,5.9-4.8,10.8-10.8,10.8c0,0,0,0,0,0
				L418.8,181.8z"/>
			<path class="st0" d="M217.5,270.5c-4.4,1.4-7.5,5.5-7.5,10.3c0,4.7,3,8.7,7.2,10.1L217.5,270.5z"/>
		</g>
	</g>
</g>
</svg>
