<svg height="496pt" viewBox="0 0 496 496" width="496pt" xmlns="http://www.w3.org/2000/svg"><path d="m360 304v-64h-32v-8c0-13.230469-10.769531-24-24-24h-16v-16c0-8.824219-7.175781-16-16-16h-16v-48h-16v48h-16c-8.824219 0-16 7.175781-16 16v16h-16c-13.230469 0-24 10.769531-24 24v8h-32v80h-136v176h496v-192zm-136-112h48v16h-48zm-40 40c0-4.40625 3.585938-8 8-8h112c4.414062 0 8 3.59375 8 8v8h-128zm160 24v224h-192v-224zm-328 80h120v144h-120zm464 144h-120v-160h120zm0 0"/><path d="m240 365.335938v98.664062h16v-120h-20l-26.398438 35.199219 12.796876 9.601562zm0 0"/><path d="m434.238281 401.046875-42.238281 35.199219v27.753906h64v-16h-48v-4.257812l36.496094-30.40625c7.3125-6.097657 11.503906-15.054688 11.503906-24.574219v-4.761719c0-17.648438-14.351562-32-32-32s-32 14.351562-32 32v8h16v-8c0-8.824219 7.175781-16 16-16s16 7.175781 16 16v4.761719c0 4.757812-2.105469 9.238281-5.761719 12.285156zm0 0"/><path d="m104 384c0-17.648438-14.351562-32-32-32h-32v16h32c8.824219 0 16 7.175781 16 16s-7.175781 16-16 16h-16v16h16c8.824219 0 16 7.175781 16 16s-7.175781 16-16 16h-32v16h32c17.648438 0 32-14.351562 32-32 0-9.542969-4.199219-18.136719-10.855469-24 6.65625-5.863281 10.855469-14.457031 10.855469-24zm0 0"/><path d="m240 0h16v32h-16zm0 0"/><path d="m160.808594 36.125 11.316406-11.3125 22.625 22.632812-11.316406 11.308594zm0 0"/><path d="m298.339844 47.433594 22.625-22.625 11.316406 11.3125-22.628906 22.628906zm0 0"/><g fill="#f0bc5e"><path d="m217.273438 168.152344c-1.730469 0-3.496094-.480469-5.3125-1.535156-9.59375-5.578126-4.410157-18.335938 1.09375-31.839844 1.570312-3.855469 3.976562-9.769532 4.890624-13.296875-3.410156-.886719-9.402343-1.695313-13.335937-2.222657-14.714844-1.992187-28.609375-3.859374-28.609375-15.257812s13.894531-13.265625 28.609375-15.238281c3.925781-.53125 9.917969-1.335938 13.335937-2.226563-.921874-3.527344-3.320312-9.4375-4.890624-13.289062-5.503907-13.503906-10.695313-26.269532-1.101563-31.847656 9.460937-5.535157 17.375 4.691406 26.503906 16.511718 2.703125 3.488282 6.871094 8.898438 9.542969 11.425782 2.671875-2.535157 6.839844-7.945313 9.542969-11.441407 9.121093-11.824219 17.023437-22.03125 26.496093-16.503906 9.59375 5.578125 4.410157 18.335937-1.09375 31.839844-1.570312 3.859375-3.976562 9.769531-4.890624 13.296875 3.410156.886718 9.402343 1.695312 13.335937 2.226562 14.714844 1.980469 28.609375 3.847656 28.609375 15.246094s-13.894531 13.265625-28.609375 15.238281c-3.925781.53125-9.917969 1.335938-13.335937 2.226563.921874 3.527344 3.320312 9.4375 4.890624 13.289062 5.503907 13.503906 10.695313 26.269532 1.101563 31.847656-9.480469 5.527344-17.382813-4.699218-26.503906-16.511718-2.695313-3.496094-6.863281-8.898438-9.535157-11.433594-2.671874 2.535156-6.839843 7.945312-9.542968 11.441406-7.375 9.550782-13.945313 18.054688-21.191406 18.054688zm0 0"/><path d="m200 256v88l48-32 48 32v-88zm0 0"/></g></svg>