<?xml version="1.0"?>
<svg xmlns="http://www.w3.org/2000/svg" height="512px" viewBox="0 0 496 496" width="512px"><g><path d="m496 91.574219v-91.574219h-91.574219l-156.425781 174.824219-156.425781-174.824219h-91.574219v91.574219l179.105469 160.25-43.425781 48.535156-23.679688-23.671875-35.3125 35.3125 16 16-24 24 20 20-44.6875 44.6875-8.6875-8.6875h-22.625l-12.6875 12.6875v22.625l52.6875 52.6875h22.625l12.6875-12.6875v-22.625l-8.6875-8.6875 44.6875-44.6875 20 20 24-24 16 16 35.3125-35.3125-23.679688-23.679688 52.367188-46.847656 52.367188 46.847656-23.679688 23.679688 35.3125 35.3125 16-16 24 24 20-20 44.6875 44.6875-8.6875 8.6875v22.625l12.6875 12.6875h22.625l52.6875-52.6875v-22.625l-12.6875-12.6875h-22.625l-8.6875 8.6875-44.6875-44.6875 20-20-24-24 16-16-35.3125-35.3125-23.679688 23.679688-43.425781-48.535157zm-480-7.148438v-57.113281l174.34375 174.34375 11.3125-11.3125-174.34375-174.34375h57.113281l152.839844 170.824219-47.496094 53.078125zm56 392.261719-3.3125 3.3125h-9.375l-43.3125-43.3125v-9.375l3.3125-3.3125h9.375l43.3125 43.3125zm-4-36-12.6875-12.6875 44.6875-44.6875 12.6875 12.6875zm76-36-52.6875-52.6875 12.6875-12.6875 52.6875 52.6875zm40-8-84.6875-84.6875 12.6875-12.6875 84.6875 84.6875zm-12.6875-60.6875 122.34375-122.34375-11.3125-11.3125-122.34375 122.34375-12.992188-12.992188 264.566407-295.695312h57.113281l-174.34375 174.34375 11.3125 11.3125 174.34375-174.34375v57.113281l-295.695312 264.566407zm88.6875-33.265625 16.585938-14.839844 48.101562 48.105469-12.992188 12.992188zm207.3125 121.265625h9.375l3.3125 3.3125v9.375l-43.3125 43.3125h-9.375l-3.3125-3.3125v-9.375zm-26.625 4-12.6875 12.6875-44.6875-44.6875 12.6875-12.6875zm-36-76-52.6875 52.6875-12.6875-12.6875 52.6875-52.6875zm-8-40-84.6875 84.6875-12.6875-12.6875 84.6875-84.6875zm-47.695312-.304688-12.992188 12.992188-47.472656-47.472656 16.449218-14.71875zm0 0" data-original="#000000" class="active-path" data-old_color="#000000" fill="#777FFE"/><path d="m289.617188 88-41.617188-62.425781-41.617188 62.425781 41.617188 62.425781zm-41.617188-33.574219 22.382812 33.574219-22.382812 33.574219-22.382812-33.574219zm0 0" data-original="#000000" class="active-path" data-old_color="#000000" fill="#777FFE"/><path d="m206.941406 9.761719 14.78125-6.125 12.246094 29.566406-14.78125 6.125zm0 0" data-original="#000000" class="active-path" data-old_color="#000000" fill="#777FFE"/><path d="m163.636719 61.710938 6.125-14.785157 29.5625 12.246094-6.121094 14.785156zm0 0" data-original="#000000" class="active-path" data-old_color="#000000" fill="#777FFE"/><path d="m296.667969 59.183594 29.5625-12.25 6.125 14.78125-29.5625 12.25zm0 0" data-original="#000000" class="active-path" data-old_color="#000000" fill="#777FFE"/><path d="m262.03125 33.207031 12.25-29.5625 14.78125 6.125-12.25 29.5625zm0 0" data-original="#000000" class="active-path" data-old_color="#000000" fill="#777FFE"/><path d="m240 432h16v16h-16zm0 0" data-original="#000000" class="active-path" data-old_color="#000000" fill="#777FFE"/><path d="m272 432h16v16h-16zm0 0" data-original="#000000" class="active-path" data-old_color="#000000" fill="#777FFE"/><path d="m208 432h16v16h-16zm0 0" data-original="#000000" class="active-path" data-old_color="#000000" fill="#777FFE"/></g> </svg>
