<?xml version="1.0"?>
<svg xmlns="http://www.w3.org/2000/svg" height="512px" viewBox="0 0 464 464" width="512px" class=""><g><path d="m160 104c0 11.398438 13.894531 13.265625 28.609375 15.238281 3.933594.53125 9.925781 1.335938 13.335937 2.226563-.914062 3.527344-3.320312 9.4375-4.890624 13.296875-5.503907 13.503906-10.6875 26.261719-1.09375 31.839843 1.824218 1.0625 3.582031 1.535157 5.3125 1.535157 7.246093 0 13.816406-8.496094 21.175781-18.046875.460937-.601563 1.015625-1.304688 1.542969-1.992188v27.886719h16v-27.886719c.527343.6875 1.078124 1.382813 1.535156 1.980469 9.128906 11.832031 17.03125 22.050781 26.503906 16.515625 9.59375-5.578125 4.402344-18.347656-1.101562-31.851562-1.570313-3.847657-3.96875-9.757813-4.890626-13.285157 3.417969-.890625 9.410157-1.695312 13.335938-2.226562 14.730469-1.957031 28.625-3.832031 28.625-15.230469s-13.894531-13.265625-28.609375-15.238281c-3.933594-.53125-9.925781-1.335938-13.335937-2.226563.914062-3.527344 3.320312-9.4375 4.890624-13.296875 5.503907-13.503906 10.6875-26.261719 1.09375-31.839843-9.472656-5.511719-17.375 4.691406-26.496093 16.503906-2.703125 3.496094-6.871094 8.898437-9.542969 11.441406-2.671875-2.527344-6.839844-7.9375-9.535156-11.433594-9.136719-11.832031-17.050782-22.0625-26.503906-16.511718-9.59375 5.578124-4.402344 18.34375 1.101562 31.847656 1.570312 3.851562 3.96875 9.761718 4.890625 13.289062-3.417969.890625-9.410156 1.695313-13.335937 2.226563-14.722657 1.972656-28.617188 3.839843-28.617188 15.238281zm0 0" data-original="#000000" class="active-path" data-old_color="#000000" fill="#FFFFFF"/><path d="m224 0h16v32h-16zm0 0" data-original="#000000" class="active-path" data-old_color="#000000" fill="#FFFFFF"/><path d="m144.804688 36.117188 11.3125-11.3125 22.625 22.625-11.3125 11.316406zm0 0" data-original="#000000" class="active-path" data-old_color="#000000" fill="#FFFFFF"/><path d="m282.339844 47.433594 22.625-22.625 11.316406 11.3125-22.628906 22.628906zm0 0" data-original="#000000" class="active-path" data-old_color="#000000" fill="#FFFFFF"/><path d="m0 464h120v-144h-120zm24-32h32c8.824219 0 16-7.175781 16-16s-7.175781-16-16-16h-16v-16h16c8.824219 0 16-7.175781 16-16s-7.175781-16-16-16h-32v-16h32c17.648438 0 32 14.351562 32 32 0 9.542969-4.199219 18.136719-10.855469 24 6.65625 5.863281 10.855469 14.457031 10.855469 24 0 17.648438-14.351562 32-32 32h-32zm0 0" data-original="#000000" class="active-path" data-old_color="#000000" fill="#FFFFFF"/><path d="m296 232c0-4.414062-3.585938-8-8-8h-112c-4.414062 0-8 3.585938-8 8v8h128zm0 0" data-original="#000000" class="active-path" data-old_color="#000000" fill="#FFFFFF"/><path d="m208 192h48v16h-48zm0 0" data-original="#000000" class="active-path" data-old_color="#000000" fill="#FFFFFF"/><path d="m232 278 24 18v-40h-48v40zm0 0" data-original="#000000" class="active-path" data-old_color="#000000" fill="#FFFFFF"/><path d="m344 304v160h120v-160zm96 68.761719c0 9.519531-4.191406 18.476562-11.503906 24.574219l-36.496094 30.417968v4.246094h48v16h-64v-27.753906l42.238281-35.199219c3.65625-3.046875 5.761719-7.527344 5.761719-12.285156v-4.761719c0-8.824219-7.175781-16-16-16s-16 7.175781-16 16v8h-16v-8c0-17.648438 14.351562-32 32-32s32 14.351562 32 32zm0 0" data-original="#000000" class="active-path" data-old_color="#000000" fill="#FFFFFF"/><path d="m272 328-40-30-40 30v-72h-56v208h192v-208h-56zm-32 120h-16v-98.664062l-17.601562 23.464843-12.796876-9.59375 26.398438-35.199219h20zm0 0" data-original="#000000" class="active-path" data-old_color="#000000" fill="#FFFFFF"/></g> </svg>
