<?xml version="1.0" encoding="utf-8"?>
<!-- Generator: Adobe Illustrator 21.0.0, SVG Export Plug-In . SVG Version: 6.00 Build 0)  -->
<svg version="1.1" id="Layer_1" xmlns="http://www.w3.org/2000/svg" xmlns:xlink="http://www.w3.org/1999/xlink" x="0px" y="0px"
	 viewBox="0 0 1920 1080" style="enable-background:new 0 0 1920 1080;" xml:space="preserve">
<style type="text/css">
	.st0{fill:#3A3A3A;}
	.st1{fill:#777FFE;}
</style>
<g>
	<g>
		<path class="st0" d="M828.6,355.9h-10.2l22.3,60.1c2.5-2.5,4.9-4.9,7.4-7.4L828.6,355.9z"/>
		<path class="st0" d="M1058.8,355.9h-10.2l-19.8,53.2c2.5,2.5,4.9,4.9,7.4,7.4L1058.8,355.9z"/>
		<path class="st0" d="M1249,502.7C1147.2,400.8,1045.3,299,943.5,197c-4.1-4.2-6.5-4.1-10.6,0C831.1,299,729.3,400.8,627.3,502.6
			c-4,4-4.5,6.4-0.2,10.6c17.4,16.9,34.4,34.3,51.6,51.4c6.6,6.6,6.6,6.6,13.4-0.2c44.6-44.6,89.3-89.3,133.9-133.9l-33-89.1
			c-0.8-2.5,0.4-5.1,3-4.7h41.5c2.5,0,5.1,2.1,5.9,4.7l19.5,52.4c22.3-22.3,44.5-44.5,66.8-66.8c9.7-9.7,7.5-9.7,17.2,0
			c22.4,22.4,44.8,44.8,67.3,67.3l19.7-53.3c0.8-2.1,3.8-4.7,6.3-4.2h40.2c3,0,4.7,2.5,3.8,5.5l-33.2,88.9
			c44.6,44.6,89.2,89.2,133.8,133.8c6.3,6.3,6.3,6.3,12.5,0.1c17.3-17.3,34.7-34.6,52-52c1.5-1.5,3.3-2.7,3.8-5.3
			C1252.6,505.7,1250.6,504.3,1249,502.7z"/>
		<path class="st0" d="M858.9,524.5c-35.1,35.1-70.1,70.2-105.3,105.2c-3.1,3.1-4.7,5.3-0.7,9.2c18.4,18,36.5,36.4,54.7,54.6
			c1.2,1.2,2.3,2.6,4.2,2.6c2.3-0.6,3.7-2.6,5.3-4.3c25.8-25.8,51.6-51.6,77.4-77.3l-33.9-91.7C860,523.4,859.5,524,858.9,524.5z"/>
		<path class="st0" d="M932.3,576.8c5.9-5.9,6-5.9,11.8-0.1c0.6,0.6,1.1,1.1,1.7,1.7l34-91.8c-12-12-23.9-24-35.9-36
			c-4.2-4.3-6.8-4.5-11.1-0.1c-11.7,11.9-23.5,23.8-35.4,35.6l34.1,91.5C931.7,577.3,932,577,932.3,576.8z"/>
		<path class="st0" d="M1016.7,523.7l-33.9,91.7c25.6,25.6,51.2,51.2,76.7,76.9c4.1,4.1,6.5,4.3,10.6,0.1
			c17.3-17.7,34.7-35.1,52.4-52.4c4.3-4.1,4-6.6-0.1-10.6C1087.2,594.2,1051.9,558.9,1016.7,523.7z"/>
		<path class="st1" d="M942,701.3c-2.6-2.6-4.6-3-7.4-0.2c-18.4,18.6-36.9,37.1-55.5,55.5c-3.1,3.1-3,5.5,0,8.5
			c18.4,18.3,36.8,36.6,55.1,55.1c2.8,2.8,4.9,3.2,7.9,0.2c18.3-18.4,36.7-36.7,55-55.1c1.2-1.2,2.5-2.3,2.8-4.1
			c0.1-1.9-1.2-3.1-2.4-4.3C979,738.4,960.4,719.9,942,701.3z"/>
		<path class="st0" d="M1033,479.9c1.3-3-0.8-5.9-4.2-5.9h-38.1c-3.4,0-7.2,3-8.5,5.9l-2.5,6.7c12.3,12.4,24.7,24.8,37,37.1
			L1033,479.9z"/>
		<path class="st0" d="M897.3,486.1l-2.3-6.3c-1.3-3-5.1-5.9-8.5-5.9h-38.1c-3.4,0-5.1,3-3.8,5.9l15.9,43
			C872.8,510.6,885.1,498.4,897.3,486.1z"/>
		<path class="st0" d="M862.8,448.1h-0.4h-9.7l-12-32.2c-4.9,4.9-9.8,9.8-14.7,14.7l11.8,31.9c0.8,2.5,3.8,4.7,6.3,4.7h21.2
			c2.5,0,5.9-1.3,7.6-2.5l9.3-8.5c1.3-1.7,1.7-5.1,0.8-7.6l-20.3-54.7c-4.9,4.9-9.8,9.8-14.7,14.7L862.8,448.1z"/>
		<path class="st0" d="M942.4,587.4c-2.5,7.6-3.8,22-3.8,22s-0.8-14.4-3.4-21.6l-3.8-10.2c-12.3,12.3-24.6,24.6-36.9,36.9l20.8,56.2
			c2.1,5.1,6.8,8.9,12.7,8.9h21.6c5.5,0,10.6-3.8,12.7-8.9l20.5-55.4c-12.4-12.3-24.7-24.7-37.1-37L942.4,587.4z"/>
		<path class="st0" d="M1024.5,448.1h-10.2l14.5-39c-4.9-4.9-9.8-9.8-14.7-14.7l-24.7,66.9c-1.3,3.4,0.4,5.9,3.8,5.9h38.1
			c3.4,0,7.2-2.5,8.5-5.9l11.2-30c-4.9-4.9-9.8-9.8-14.7-14.7L1024.5,448.1z"/>
	</g>
</g>
</svg>
